<svg width="17" height="18" viewBox="0 0 17 18" fill="none" xmlns="http://www.w3.org/2000/svg">
<path d="M12.0391 15.1237H4.95573C2.37031 15.1237 0.882812 13.6362 0.882812 11.0508V6.09245C0.882812 3.50703 2.37031 2.01953 4.95573 2.01953H12.0391C14.6245 2.01953 16.112 3.50703 16.112 6.09245V11.0508C16.112 13.6362 14.6245 15.1237 12.0391 15.1237ZM4.95573 3.08203C2.9299 3.08203 1.94531 4.06661 1.94531 6.09245V11.0508C1.94531 13.0766 2.9299 14.0612 4.95573 14.0612H12.0391C14.0649 14.0612 15.0495 13.0766 15.0495 11.0508V6.09245C15.0495 4.06661 14.0649 3.08203 12.0391 3.08203H4.95573Z" fill="#868686"/>
<path d="M8.32483 8.30788C7.72983 8.30788 7.12775 8.12371 6.66734 7.7483L4.45025 5.97746C4.22358 5.7933 4.18109 5.46038 4.36525 5.23371C4.54942 5.00704 4.88234 4.96455 5.10901 5.14871L7.32608 6.91955C7.86442 7.35163 8.77816 7.35163 9.3165 6.91955L11.5336 5.14871C11.7603 4.96455 12.1003 4.99996 12.2773 5.23371C12.4615 5.46038 12.4261 5.80038 12.1923 5.97746L9.97525 7.7483C9.52192 8.12371 8.91983 8.30788 8.32483 8.30788Z" fill="#868686"/>
</svg>
