<svg width="26" height="21" viewBox="0 0 26 21" fill="none" xmlns="http://www.w3.org/2000/svg">
<path d="M1.08909 9.63616C1.14552 9.60737 1.20195 9.58089 1.25838 9.55555C2.22003 9.10987 3.19435 8.69297 4.16752 8.27608C4.22049 8.27608 4.30916 8.2162 4.35753 8.19432C4.43239 8.16207 4.50724 8.12981 4.58326 8.09757C4.72721 8.03538 4.87233 7.97434 5.01629 7.91216C5.30536 7.78893 5.59328 7.66456 5.88235 7.54133C6.45934 7.29488 7.03748 7.04727 7.61447 6.79966C8.7696 6.30561 9.92474 5.81156 11.0799 5.3175C12.235 4.82345 13.3901 4.32939 14.5452 3.83534C15.7004 3.34128 16.8555 2.84723 18.0107 2.35317C19.1658 1.85912 20.3209 1.36507 21.4761 0.871011C21.7329 0.761605 22.0116 0.595775 22.2857 0.547406C22.5171 0.507099 22.7429 0.426478 22.9744 0.382715C23.4154 0.298645 23.9026 0.264103 24.3253 0.447214C24.4716 0.510554 24.6051 0.600374 24.7192 0.712083C25.2547 1.24299 25.1798 2.11364 25.067 2.8599C24.2769 8.06072 23.4869 13.2604 22.6957 18.4612C22.5874 19.1741 22.4412 19.9572 21.8768 20.4075C21.4 20.7887 20.7217 20.8324 20.1343 20.6701C19.5458 20.5077 19.0264 20.1656 18.5174 19.8282C16.4052 18.4301 14.293 17.0309 12.1809 15.6328C11.6787 15.2999 11.1202 14.8669 11.1259 14.2646C11.1294 13.9019 11.3459 13.5782 11.567 13.2903C13.4017 10.8972 16.0517 9.25152 18.021 6.96781C18.2986 6.64651 18.5174 6.06377 18.1362 5.87835C17.9093 5.76779 17.6479 5.91752 17.4417 6.06147C14.8378 7.8707 12.2338 9.67993 9.62991 11.488C8.77997 12.0777 7.88972 12.6857 6.86588 12.8308C5.9503 12.961 5.02782 12.7064 4.14103 12.445C3.3982 12.2262 2.65651 12.0028 1.91714 11.7713C1.52442 11.6492 1.11902 11.518 0.814977 11.2404C0.510934 10.964 0.337024 10.4987 0.520141 10.1302C0.634157 9.89874 0.857605 9.75249 1.0914 9.63387L1.08909 9.63616Z" fill="white"/>
</svg>
