<svg width="27" height="27" viewBox="0 0 27 27" fill="none" xmlns="http://www.w3.org/2000/svg">
<path d="M17.7113 19.4567C12.5299 19.4556 8.31365 15.2394 8.3125 10.0593C8.3148 8.74645 9.3824 7.67773 10.6942 7.67773C10.8289 7.67773 10.9625 7.68924 11.0892 7.71228C11.3702 7.75834 11.6362 7.85394 11.8827 7.99674C11.9184 8.01747 11.9426 8.05202 11.9483 8.09232L12.4954 11.5438C12.5023 11.5841 12.4896 11.6244 12.4631 11.6543C12.1603 11.9895 11.7744 12.2302 11.346 12.3511L11.1399 12.4098L11.2182 12.6102C11.9253 14.4079 13.3626 15.8463 15.1615 16.5534L15.3619 16.6318L15.4195 16.4245C15.5404 15.9949 15.7811 15.6091 16.1163 15.3074C16.1404 15.2855 16.1727 15.2728 16.2061 15.2728C16.213 15.2728 16.2211 15.2728 16.228 15.2751L19.6784 15.8221C19.7198 15.8291 19.7532 15.8521 19.7751 15.8878C19.9168 16.1342 20.0124 16.4014 20.0596 16.6813C20.0815 16.8068 20.093 16.9381 20.093 17.0763C20.093 18.388 19.0242 19.4556 17.7113 19.4579V19.4567Z" fill="white"/>
<path d="M26.8997 12.4006C26.6198 9.24282 25.1733 6.31419 22.8262 4.15486C20.4653 1.98171 17.4007 0.785156 14.1967 0.785156C7.16456 0.785156 1.44303 6.50652 1.44303 13.5385C1.44303 15.8982 2.09371 18.198 3.32601 20.2007L0.578125 26.2848L9.37922 25.3474C10.9098 25.9739 12.5302 26.2917 14.1967 26.2917C14.6355 26.2917 15.0846 26.2687 15.5349 26.2226C15.9323 26.18 16.333 26.1178 16.7281 26.0384C22.6177 24.8487 26.9169 19.6214 26.9503 13.6064V13.5385C26.9503 13.155 26.9331 12.7726 26.8985 12.4018L26.8997 12.4006ZM9.71665 22.6767L4.84739 23.195L6.30195 19.9738L6.01172 19.5834C5.98984 19.5546 5.9691 19.5258 5.94492 19.4936C4.68268 17.7512 4.01586 15.692 4.01586 13.5373C4.01586 7.92304 8.58342 3.35678 14.1967 3.35678C19.4564 3.35678 23.9134 7.46008 24.3429 12.6977C24.366 12.9787 24.3775 13.2609 24.3775 13.5385C24.3775 13.6179 24.3763 13.6962 24.374 13.7791C24.2658 18.4755 20.9846 22.4637 16.3952 23.4794C16.0451 23.5577 15.6858 23.6165 15.3276 23.6556C14.9557 23.6982 14.5744 23.719 14.1955 23.719C12.8469 23.719 11.5363 23.4575 10.2971 22.9416C10.1601 22.8863 10.0253 22.8276 9.89863 22.7666L9.71438 22.6779L9.71665 22.6767Z" fill="white"/>
</svg>
