<svg width="26" height="19" viewBox="0 0 26 19" fill="none" xmlns="http://www.w3.org/2000/svg">
<path d="M25.7114 5.24359C25.5536 3.66846 25.2115 1.92896 23.9539 1.01368C22.9784 0.304159 21.6978 0.278148 20.5023 0.27933C17.9744 0.281696 15.4465 0.284068 12.9186 0.286433C10.4874 0.288798 8.0562 0.291155 5.62501 0.29352C4.60923 0.29352 3.62224 0.213109 2.67902 0.663653C1.86824 1.05152 1.23481 1.78825 0.854753 2.60774C0.324982 3.74888 0.213284 5.04021 0.149942 6.30197C0.0324712 8.59844 0.0451475 10.902 0.186804 13.1961C0.289303 14.8718 0.550717 16.7224 1.8118 17.7902C2.93008 18.7363 4.50787 18.7824 5.95668 18.7836C10.5588 18.7871 15.1609 18.7907 19.763 18.7954C20.3526 18.7954 20.9688 18.7848 21.57 18.7174C22.7539 18.5861 23.8814 18.2384 24.6415 17.3385C25.4085 16.4315 25.6054 15.1674 25.7229 13.9719C26.0062 11.0723 26.0027 8.14198 25.7114 5.24359ZM10.257 13.6041V5.47064L17.1176 9.53737L10.257 13.6041Z" fill="white"/>
</svg>
